<?xml version="1.0" standalone="no"?>
<!DOCTYPE svg PUBLIC "-//W3C//DTD SVG 20010904//EN"
 "http://www.w3.org/TR/2001/REC-SVG-20010904/DTD/svg10.dtd">
<svg version="1.0" xmlns="http://www.w3.org/2000/svg"
 width="160.000000pt" height="160.000000pt" viewBox="0 0 160.000000 160.000000"
 preserveAspectRatio="xMidYMid meet">
<metadata>
Created by potrace 1.14, written by Peter Selinger 2001-2017
</metadata>
<g transform="translate(0.000000,160.000000) scale(0.100000,-0.100000)"
fill="#000000" stroke="none">
<path d="M272 1558 l-62 -19 0 -703 c0 -633 2 -704 16 -710 9 -3 41 -6 72 -7
31 0 268 -17 527 -38 259 -21 473 -36 478 -34 4 2 7 312 7 687 0 584 -2 685
-14 696 -12 9 -763 78 -886 80 l-25 1 25 13 c33 18 127 21 598 18 l392 -2 0
-667 c0 -616 -1 -668 -17 -685 -17 -19 -16 -19 22 -16 l40 3 3 686 c2 542 -1
689 -10 696 -8 7 -217 12 -558 16 -517 4 -549 4 -608 -15z m746 -320 c20 -20
14 -65 -10 -82 -30 -21 -44 -20 -68 4 -24 24 -26 53 -4 74 18 19 65 21 82 4z"/>
<path d="M468 1523 c12 -2 32 -2 45 0 12 2 2 4 -23 4 -25 0 -35 -2 -22 -4z"/>
<path d="M593 1513 c9 -2 23 -2 30 0 6 3 -1 5 -18 5 -16 0 -22 -2 -12 -5z"/>
<path d="M713 1503 c9 -2 25 -2 35 0 9 3 1 5 -18 5 -19 0 -27 -2 -17 -5z"/>
<path d="M838 1493 c6 -2 18 -2 25 0 6 3 1 5 -13 5 -14 0 -19 -2 -12 -5z"/>
<path d="M1328 795 c1 -428 6 -654 12 -650 16 10 13 1267 -2 1288 -11 14 -12
-112 -10 -638z"/>
</g>
</svg>
